<svg width="33" height="30" viewBox="21 0 51 44" fill="none" xmlns="http://www.w3.org/2000/svg">
    <path
        d="M58.2098 35.4001C58.4063 35.1787 58.6447 34.9982 58.9111 34.8692C59.1776 34.7401 59.4669 34.6649 59.7625 34.648L61.0807 27.2242C60.938 27.1606 60.8024 27.082 60.6763 26.9897L54.9225 32.0764C55.0981 32.4018 55.1898 32.7659 55.1893 33.1358C55.1894 33.3353 55.1622 33.5339 55.1085 33.7261L58.2098 35.4001ZM71.4925 41.1297L63.3046 26.9493C62.9541 27.2172 62.5318 27.3749 62.0915 27.4022L60.7531 34.8259C61.1239 34.9844 61.4448 35.2404 61.6817 35.5667C61.9186 35.8929 62.0627 36.2773 62.0987 36.6789C62.1347 37.0805 62.0613 37.4843 61.8862 37.8475C61.7111 38.2107 61.4409 38.5197 61.1043 38.7416C60.7676 38.9636 60.3772 39.0902 59.9743 39.108C59.5715 39.1258 59.1714 39.0342 58.8165 38.8429C58.4616 38.6515 58.1651 38.3676 57.9586 38.0213C57.7521 37.675 57.6433 37.2792 57.6437 36.8759C57.644 36.6777 57.6711 36.4805 57.7246 36.2897L54.6151 34.6116C54.2412 35.0394 53.7172 35.3072 53.1514 35.3597L52.3064 41.6634C52.7881 41.8394 53.1932 42.1782 53.4516 42.6212C53.71 43.0642 53.8055 43.5835 53.7216 44.0895H69.7821C70.1277 44.0886 70.467 43.997 70.766 43.8239C71.0651 43.6507 71.3134 43.4021 71.4862 43.1028C71.6589 42.8035 71.7501 42.4641 71.7505 42.1186C71.7509 41.773 71.6606 41.4334 71.4885 41.1337L71.4925 41.1297ZM46.7304 24.5515C46.4995 24.1892 46.3774 23.7682 46.3786 23.3385C46.3797 22.9334 46.4915 22.5362 46.7021 22.1901L38.9792 14.7138C38.7434 14.8657 38.4815 14.9726 38.2069 15.0292L37.6367 32.9538C37.8426 33.0104 38.0399 33.0947 38.223 33.2045L46.7304 24.5515ZM40.0022 12.8255C40.0026 13.2303 39.8921 13.6275 39.6827 13.9739L47.4057 21.4502C47.7664 21.2147 48.188 21.0896 48.6187 21.0903C49.1741 21.0917 49.7091 21.2993 50.1201 21.6729C50.531 22.0465 50.7885 22.5593 50.8426 23.1121L59.8757 24.3494C59.9839 24.0695 60.147 23.8141 60.3553 23.5982C60.5636 23.3822 60.8129 23.2101 61.0887 23.0918L48.3236 0.986306C48.1509 0.68649 47.9022 0.437464 47.6027 0.264315C47.3031 0.0911651 46.9632 0 46.6172 0C46.2712 0 45.9314 0.0911651 45.6318 0.264315C45.3323 0.437464 45.0836 0.68649 44.9109 0.986306L39.1085 11.0383C39.3861 11.2463 39.6114 11.5161 39.7665 11.8263C39.9216 12.1366 40.0023 12.4787 40.0022 12.8255ZM50.8507 33.8919L39.2824 35.3313C39.2659 35.4836 39.2347 35.6339 39.1894 35.7802L49.9126 42.185C50.2814 41.7996 50.7766 41.5599 51.3076 41.5097L52.1567 35.206C51.8589 35.0957 51.5881 34.9228 51.3628 34.6988C51.1375 34.4749 50.9629 34.2053 50.8507 33.9081V33.8919ZM48.6228 25.5745C48.2132 25.5741 47.8117 25.4608 47.4623 25.247L38.9711 33.9161C39.0572 34.0506 39.1277 34.1944 39.1813 34.3447L50.7496 32.9053C50.7828 32.6006 50.8781 32.3059 51.0297 32.0396C51.1814 31.7732 51.386 31.5408 51.6311 31.3567L49.0595 25.5341C48.9155 25.5612 48.7693 25.5747 48.6228 25.5745ZM38.6678 36.6819C38.4245 36.9335 38.1254 37.1244 37.7947 37.2391C37.464 37.3538 37.111 37.3891 36.7641 37.3422C36.4172 37.2953 36.0863 37.1675 35.7979 36.9691C35.5096 36.7706 35.2719 36.5072 35.1042 36.1999C34.9365 35.8927 34.8434 35.5503 34.8324 35.2005C34.8214 34.8506 34.8928 34.5031 35.0409 34.1859C35.189 33.8688 35.4097 33.5909 35.685 33.3748C35.9603 33.1586 36.2826 33.0103 36.6259 32.9417L37.196 15.0171C37.0962 14.9919 36.9988 14.9581 36.9049 14.916L21.7581 41.1297C21.5861 41.4293 21.4957 41.7689 21.4961 42.1145C21.4965 42.4601 21.5876 42.7995 21.7604 43.0987C21.9332 43.398 22.1815 43.6467 22.4806 43.8199C22.7796 43.993 23.1189 44.0846 23.4645 44.0854H49.3142C49.2966 43.9758 49.2871 43.8649 49.2859 43.7539C49.285 43.5217 49.3219 43.2909 49.3951 43.0705L38.6678 36.6819ZM52.9452 30.924C53.4082 30.9203 53.8607 31.0617 54.2391 31.3283L59.993 26.2417C59.849 25.9766 59.761 25.6849 59.7342 25.3845L50.7011 24.1472C50.5473 24.5386 50.2885 24.88 49.9531 25.1338L52.5288 30.9523C52.6659 30.9237 52.8052 30.9075 52.9452 30.9038V30.924Z"
        fill="currentColor"></path>
</svg>