<svg width="16" height="19" viewBox="0 0 16 19" fill="none" xmlns="http://www.w3.org/2000/svg">
<path id="Vector" d="M6.73684 0.889477C7.00351 0.735091 7.28421 0.657898 7.57895 0.657898C7.87368 0.657898 8.15439 0.735091 8.42105 0.889477L14.3158 4.27895C14.5825 4.43334 14.7895 4.63685 14.9368 4.88948C15.0842 5.14211 15.1579 5.42281 15.1579 5.73158V9.31053C14.9053 9.12807 14.6386 8.97018 14.3579 8.83685C14.0772 8.70351 13.7825 8.58772 13.4737 8.48948V6.63685L10.4421 8.38421C9.65614 8.5807 8.94386 8.91404 8.30526 9.38421C7.66667 9.85439 7.14386 10.4263 6.73684 11.1V9.56316L1.68421 6.63685V12.4053L5.93684 14.8684C5.99298 15.3175 6.09825 15.7491 6.25263 16.1632C6.40702 16.5772 6.60351 16.9667 6.84211 17.3316C6.81404 17.3175 6.79649 17.307 6.78947 17.3C6.78246 17.293 6.76491 17.2825 6.73684 17.2684L0.842105 13.879C0.575439 13.7246 0.368421 13.5211 0.221053 13.2684C0.0736842 13.0158 0 12.7351 0 12.4263V5.73158C0 5.42281 0.0736842 5.14211 0.221053 4.88948C0.368421 4.63685 0.575439 4.43334 0.842105 4.27895L6.73684 0.889477ZM7.57895 2.34211L2.58947 5.22632L7.57895 8.11053L12.5684 5.22632L7.57895 2.34211ZM11.3684 15.0579L10.1474 13.8368C10.0632 13.7526 9.96491 13.7105 9.85263 13.7105C9.74035 13.7105 9.64211 13.7526 9.55789 13.8368C9.47368 13.9211 9.43158 14.0193 9.43158 14.1316C9.43158 14.2439 9.47368 14.3421 9.55789 14.4263L11.2 16.0684C11.3684 16.2368 11.5649 16.3211 11.7895 16.3211C12.014 16.3211 12.2105 16.2368 12.3789 16.0684L14.0211 14.4263C14.1053 14.3421 14.1474 14.2439 14.1474 14.1316C14.1474 14.0193 14.1053 13.9211 14.0211 13.8368C13.9368 13.7526 13.8386 13.7105 13.7263 13.7105C13.614 13.7105 13.5158 13.7526 13.4316 13.8368L12.2105 15.0579V12.0263C12.2105 11.914 12.1684 11.8158 12.0842 11.7316C12 11.6474 11.9018 11.6053 11.7895 11.6053C11.6772 11.6053 11.5789 11.6474 11.4947 11.7316C11.4105 11.8158 11.3684 11.914 11.3684 12.0263V15.0579ZM11.7895 18.3421C10.6246 18.3421 9.63158 17.9316 8.81053 17.1105C7.98947 16.2895 7.57895 15.2965 7.57895 14.1316C7.57895 12.9667 7.98947 11.9737 8.81053 11.1526C9.63158 10.3316 10.6246 9.92106 11.7895 9.92106C12.9544 9.92106 13.9474 10.3316 14.7684 11.1526C15.5895 11.9737 16 12.9667 16 14.1316C16 15.2965 15.5895 16.2895 14.7684 17.1105C13.9474 17.9316 12.9544 18.3421 11.7895 18.3421Z" fill="white"/>
</svg>
