<svg width="14" height="17" viewBox="0 0 14 17" fill="none" xmlns="http://www.w3.org/2000/svg">
<g id="Replay">
<path id="Vector" d="M7.00287 16.5C6.03025 16.5 5.11923 16.3152 4.2698 15.9456C3.42038 15.576 2.68119 15.0767 2.05223 14.4478C1.42327 13.8188 0.92399 13.0796 0.554394 12.2302C0.184798 11.3808 0 10.4698 0 9.49713C0 9.27667 0.0745676 9.09187 0.223703 8.94274C0.372838 8.7936 0.557636 8.71903 0.778097 8.71903C0.998557 8.71903 1.18336 8.7936 1.33249 8.94274C1.48163 9.09187 1.55619 9.27667 1.55619 9.49713C1.55619 11.0144 2.08465 12.3015 3.14156 13.3584C4.19848 14.4153 5.48558 14.9438 7.00287 14.9438C8.52016 14.9438 9.80726 14.4153 10.8642 13.3584C11.9211 12.3015 12.4495 11.0144 12.4495 9.49713C12.4495 7.97984 11.9211 6.69274 10.8642 5.63583C9.80726 4.57891 8.52016 4.05045 7.00287 4.05045H6.88615L7.54754 4.71184C7.70316 4.86746 7.77772 5.04901 7.77124 5.2565C7.76476 5.464 7.69019 5.64555 7.54754 5.80117C7.39192 5.95679 7.20712 6.03784 6.99314 6.04433C6.77917 6.05081 6.59437 5.97624 6.43875 5.82062L4.43515 3.81703C4.27953 3.66141 4.20172 3.47985 4.20172 3.27236C4.20172 3.06487 4.27953 2.88331 4.43515 2.72769L6.43875 0.724092C6.59437 0.568473 6.77917 0.493905 6.99314 0.500389C7.20712 0.506873 7.39192 0.587925 7.54754 0.743544C7.69019 0.899164 7.76476 1.08072 7.77124 1.28821C7.77772 1.4957 7.70316 1.67726 7.54754 1.83288L6.88615 2.49426H7.00287C7.97549 2.49426 8.88651 2.67906 9.73593 3.04866C10.5854 3.41825 11.3245 3.91753 11.9535 4.54649C12.5825 5.17545 13.0817 5.91464 13.4513 6.76407C13.8209 7.61349 14.0057 8.52451 14.0057 9.49713C14.0057 10.4698 13.8209 11.3808 13.4513 12.2302C13.0817 13.0796 12.5825 13.8188 11.9535 14.4478C11.3245 15.0767 10.5854 15.576 9.73593 15.9456C8.88651 16.3152 7.97549 16.5 7.00287 16.5Z" fill="white"/>
</g>
</svg>
